<?xml version="1.0" encoding="UTF-8" standalone="no"?>
<!-- Created with Inkscape (http://www.inkscape.org/) -->

<svg
   version="1.1"
   id="svg1"
   width="1024"
   height="1024"
   viewBox="0 0 1024 1024"
   sodipodi:docname="ChatGPT Image 29 jul 2025, 14_44_04.png"
   xmlns:inkscape="http://www.inkscape.org/namespaces/inkscape"
   xmlns:sodipodi="http://sodipodi.sourceforge.net/DTD/sodipodi-0.dtd"
   xmlns="http://www.w3.org/2000/svg"
   xmlns:svg="http://www.w3.org/2000/svg">
  <defs
     id="defs1" />
  <sodipodi:namedview
     id="namedview1"
     pagecolor="#ffffff"
     bordercolor="#000000"
     borderopacity="0.25"
     inkscape:showpageshadow="2"
     inkscape:pageopacity="0.0"
     inkscape:pagecheckerboard="0"
     inkscape:deskcolor="#d1d1d1"
     showgrid="false">
    <inkscape:page
       x="0"
       y="0"
       width="1024"
       height="1024"
       id="page2"
       margin="0"
       bleed="0" />
  </sodipodi:namedview>
  <g
     inkscape:groupmode="layer"
     inkscape:label="Image"
     id="g1">
    <g
       id="g12"
       transform="translate(8.8822848,34.260224)">
      <path
         style="fill:#71b2ca"
         d="m 497.19494,840.70485 c -10.15927,-2.46162 2.59583,4.90821 -171.6939,-99.20395 -51.95364,-31.03457 -96.34293,-57.72118 -98.64287,-59.30358 -10.09964,-6.94873 -19.04798,-19.91774 -23.08873,-33.46294 -1.66474,-5.58048 -1.79868,-15.42027 -2.07534,-152.46548 -0.20032,-99.22349 0.0447,-148.70761 0.75935,-153.34092 3.15877,-20.4803 12.91265,-34.17215 33.1206,-46.49252 5.71349,-3.4834 53.81316,-31.98343 106.88816,-63.33341 53.075,-31.34998 106.85,-63.14993 119.5,-70.66656 27.14189,-16.1277 34.55449,-19.11291 47.5399,-19.14529 9.8225,-0.0245 17.95625,1.83207 26.0536,5.94684 3.12285,1.58692 28.34185,16.34551 56.04221,32.79687 87.80403,52.14719 141.49005,84.01363 171.22369,101.63334 31.16527,18.46807 38.53301,24.10445 45.61212,34.89363 2.24031,3.41441 5.3007,9.80802 6.80088,14.20802 l 2.7276,8 v 151.5 151.5 l -2.21792,7 c -1.21985,3.85 -3.90123,9.83132 -5.95862,13.29182 -6.92834,11.65338 -12.58027,15.90631 -54.32346,40.877 -21.175,12.66684 -78.55,47.01869 -127.5,76.33746 -48.95,29.31877 -91.475,54.40705 -94.5,55.75175 -11.3156,5.0301 -24.97136,6.41495 -36.26727,3.67792 z M 469.44689,783.0189 c -0.012,-1.7567 -0.21673,-1.9316 -0.93401,-0.79774 -0.50529,0.79874 -0.69684,1.81124 -0.42567,2.25 0.86736,1.40343 1.37542,0.86078 1.35968,-1.45226 z m -23.85791,-13.09725 c -0.8061,-0.97129 -1.19031,-32.71376 -1.3768,-113.75 L 443.9535,543.7689 443.70785,656.93557 c -0.24407,112.43956 -0.2162,113.65175 2.6268,114.25438 0.20485,0.0434 -0.13071,-0.52731 -0.74567,-1.2683 z M 406.2875,742.0189 c -0.17119,-5.14435 -0.18249,-5.1628 -0.56157,-0.91664 -0.31673,3.54778 -0.69296,4.22716 -2.0753,3.74755 -1.31083,-0.45481 -1.25432,-0.24981 0.25271,0.91664 1.06762,0.82635 2.08012,1.50245 2.25,1.50245 0.16987,0 0.23025,-2.3625 0.13416,-5.25 z m -4.82529,1.78518 c 0,-0.25564 -1.0125,-0.95547 -2.25,-1.55516 -2.16063,-1.04704 -2.1729,-1.02858 -0.30887,0.46482 2.04026,1.63458 2.55887,1.85556 2.55887,1.09034 z m -5,-3 c 0,-0.25564 -1.0125,-0.95547 -2.25,-1.55516 -2.16063,-1.04704 -2.1729,-1.02858 -0.30887,0.46482 2.04026,1.63458 2.55887,1.85556 2.55887,1.09034 z m -8.34409,-6.00249 c -0.63575,-1.35702 -1.31096,-2.01689 -1.50045,-1.46638 -0.1895,0.55052 0.2031,1.66081 0.87244,2.46731 1.75552,2.11527 1.94582,1.81196 0.62801,-1.00093 z m 18.0272,-0.72019 c -0.31923,-0.79773 -0.55618,-0.56078 -0.60417,0.60417 -0.0434,1.05416 0.19293,1.64479 0.52522,1.3125 0.33229,-0.33229 0.36782,-1.19479 0.079,-1.91667 z m 0.0416,-11.04459 c -0.22256,-1.79735 -0.40925,-0.56791 -0.41486,2.73209 -0.006,3.3 0.17648,4.77056 0.40465,3.26791 0.22818,-1.50265 0.23277,-4.20265 0.0102,-6 z m 0.005,-13.4956 c -0.21647,-2.07477 -0.39722,-0.62231 -0.40165,3.22769 -0.004,3.85 0.17268,5.54754 0.39359,3.77231 0.22091,-1.77524 0.22454,-4.92524 0.008,-7 z m 280.27021,-5.84268 c 0,-0.275 -0.9,-0.0183 -2,0.57037 -1.1,0.5887 -2,1.29537 -2,1.57037 0,0.275 0.9,0.0183 2,-0.57037 1.1,-0.5887 2,-1.29537 2,-1.57037 z m -280.3106,-3.17963 c -0.25153,-0.9625 -0.45732,-0.175 -0.45732,1.75 0,1.925 0.20579,2.7125 0.45732,1.75 0.25153,-0.9625 0.25153,-2.5375 0,-3.5 z m 290.31068,-2.82037 c 0,-0.275 -0.9,-0.0183 -2,0.57037 -1.1,0.5887 -2,1.29537 -2,1.57037 0,0.275 0.9,0.0183 2,-0.57037 1.1,-0.5887 2,-1.29537 2,-1.57037 z M 406.2056,678.06265 c -0.1903,-4.01156 -0.34728,-0.99375 -0.34884,6.70625 -0.002,7.7 0.15414,10.98219 0.346,7.29375 0.19186,-3.68844 0.19313,-9.98844 0.003,-14 z m -106.74339,4.74143 c 0,-0.25564 -1.0125,-0.95547 -2.25,-1.55516 -2.16063,-1.04704 -2.1729,-1.02858 -0.30887,0.46482 2.04026,1.63458 2.55887,1.85556 2.55887,1.09034 z M 406.21168,577.0189 c -0.15346,-17.1875 -0.27902,-3.125 -0.27902,31.25 0,34.375 0.12556,48.4375 0.27902,31.25 0.15346,-17.1875 0.15346,-45.3125 0,-62.5 z m -143.74947,83.78518 c 0,-0.25564 -1.0125,-0.95547 -2.25,-1.55516 -2.16063,-1.04704 -2.1729,-1.02858 -0.30887,0.46482 2.04026,1.63458 2.55887,1.85556 2.55887,1.09034 z m -15,-8.84809 c 0,-0.1721 -1.4625,-1.6346 -3.25,-3.25 l -3.25,-2.93709 2.93709,3.25 c 2.73778,3.02946 3.56291,3.70965 3.56291,2.93709 z m 528.5629,-2.93709 2.9371,-3.25 -3.25,2.93709 c -3.02946,2.73778 -3.70966,3.56291 -2.9371,3.56291 0.1721,0 1.6346,-1.4625 3.25,-3.25 z m -536.87979,-9.9375 c -0.31923,-0.79773 -0.55618,-0.56078 -0.60417,0.60417 -0.0434,1.05416 0.19293,1.64479 0.52522,1.3125 0.33229,-0.33229 0.36782,-1.19479 0.0789,-1.91667 z m -0.93972,-28.01875 c -0.1903,-4.01156 -0.34728,-0.99375 -0.34884,6.70625 -0.002,7.7 0.15414,10.98219 0.346,7.29375 0.19186,-3.68844 0.19313,-9.98844 0.003,-14 z m -0.0811,-11.04375 c -0.27742,-0.6875 -0.50439,-0.125 -0.50439,1.25 0,1.375 0.22697,1.9375 0.50439,1.25 0.27741,-0.6875 0.27741,-1.8125 0,-2.5 z m 0.0307,-5.48097 c -0.25355,-0.97296 -0.47767,-0.41903 -0.49805,1.23097 -0.0204,1.65 0.18707,2.44607 0.46099,1.76903 0.27393,-0.67703 0.2906,-2.02703 0.0371,-3 z m 358.55701,-2.93131 c -0.6875,-0.27741 -1.8125,-0.27741 -2.5,0 -0.6875,0.27741 -0.125,0.50439 1.25,0.50439 1.375,0 1.9375,-0.22698 1.25,-0.50439 z m 7,0 c -0.6875,-0.27741 -1.8125,-0.27741 -2.5,0 -0.6875,0.27741 -0.125,0.50439 1.25,0.50439 1.375,0 1.9375,-0.22698 1.25,-0.50439 z m -11.25,-0.73073 c 0,-0.21616 -0.69838,-0.661 -1.55194,-0.98855 -0.88993,-0.34149 -1.29132,-0.17384 -0.94098,0.39302 0.58725,0.9502 2.49292,1.40544 2.49292,0.59553 z m 21.12755,-3.35699 c 1.24387,-1.58605 1.2085,-1.62142 -0.37755,-0.37755 -0.9625,0.75484 -1.75,1.54234 -1.75,1.75 0,0.82303 0.82118,0.2933 2.12755,-1.37245 z m -28.12755,-0.62755 c 0,-0.20766 -0.7875,-0.99516 -1.75,-1.75 -1.58606,-1.24387 -1.62143,-1.2085 -0.37756,0.37755 1.30637,1.66575 2.12756,2.19548 2.12756,1.37245 z m -7,-14.62245 c 0,-2.63907 -0.33085,-2.98361 -2.75,-2.86382 -2.35785,0.11677 -2.42915,0.19798 -0.5,0.56955 1.59729,0.30766 2.25,1.13843 2.25,2.86382 0,1.33675 0.225,2.43045 0.5,2.43045 0.275,0 0.5,-1.35 0.5,-3 z m -340.31689,-4.1875 c -0.31923,-0.79773 -0.55618,-0.56078 -0.60417,0.60417 -0.0434,1.05416 0.19293,1.64479 0.52522,1.3125 0.33229,-0.33229 0.36782,-1.19479 0.0789,-1.91667 z m 0,-7 c -0.31923,-0.79773 -0.55618,-0.56078 -0.60417,0.60417 -0.0434,1.05416 0.19293,1.64479 0.52522,1.3125 0.33229,-0.33229 0.36782,-1.19479 0.0789,-1.91667 z m 306.23355,0.82296 c -0.22916,-0.2005 -1.54166,-0.90033 -2.91666,-1.55517 -2.35727,-1.12265 -2.38918,-1.10183 -0.55887,0.36455 1.59299,1.27625 4.84786,2.39127 3.47553,1.19062 z M 238.14532,557.0814 c -0.31923,-0.79773 -0.55618,-0.56078 -0.60417,0.60417 -0.0434,1.05416 0.19293,1.64479 0.52522,1.3125 0.33229,-0.33229 0.36782,-1.19479 0.0789,-1.91667 z m 298.31689,0.80251 c 0,-0.21174 -1.2375,-1.13845 -2.75,-2.05935 l -2.75,-1.67436 2.36078,2.05935 c 2.30373,2.00958 3.13922,2.4552 3.13922,1.67436 z m -298.25993,-18.3285 c -0.19905,-3.18258 -0.36375,-0.83651 -0.36601,5.21349 -0.002,6.05 0.16061,8.65393 0.36191,5.78651 0.20131,-2.86741 0.20315,-7.81741 0.004,-11 z m 292.25993,14.33594 c 0,-0.20766 -0.7875,-0.99516 -1.75,-1.75 -1.58606,-1.24387 -1.62143,-1.2085 -0.37756,0.37755 1.30637,1.66575 2.12756,2.19548 2.12756,1.37245 z m -4,-2.91004 c 0,-0.15818 -2.3625,-2.52068 -5.25,-5.25 l -5.25,-4.96241 4.9624,5.25 c 4.61116,4.8784 5.5376,5.7086 5.5376,4.96241 z m 160.49292,-8.70095 c 0.35034,-0.56686 -0.0511,-0.73451 -0.94099,-0.39302 -1.73241,0.6648 -2.04938,1.38156 -0.61095,1.38156 0.51754,0 1.21591,-0.44484 1.55194,-0.98854 z M 407.1552,538.53793 c -0.25355,-0.97296 -0.47767,-0.41903 -0.49805,1.23097 -0.0204,1.65 0.18707,2.44607 0.46099,1.76903 0.27393,-0.67703 0.2906,-2.02703 0.0371,-3 z m 37.99012,1.54347 c -0.31923,-0.79773 -0.55618,-0.56078 -0.60417,0.60417 -0.0434,1.05416 0.19293,1.64479 0.52522,1.3125 0.33229,-0.33229 0.36782,-1.19479 0.079,-1.91667 z m 71.31689,-0.15751 c 0,-0.18976 -1.0125,-1.20226 -2.25,-2.25 l -2.25,-1.90499 1.90498,2.25 c 1.79022,2.11445 2.59502,2.70524 2.59502,1.90499 z M 238.1552,529.53793 c -0.25355,-0.97296 -0.47767,-0.41903 -0.49805,1.23097 -0.0204,1.65 0.18707,2.44607 0.46099,1.76903 0.27393,-0.67703 0.2906,-2.02703 0.0371,-3 z m 214.43456,-4.01903 c 1.24387,-1.58605 1.2085,-1.62142 -0.37755,-0.37755 -0.9625,0.75484 -1.75,1.54234 -1.75,1.75 0,0.82303 0.82118,0.2933 2.12755,-1.37245 z m -214.39535,-11.5 c -0.21053,-2.3375 -0.38279,-0.425 -0.38279,4.25 0,4.675 0.17226,6.5875 0.38279,4.25 0.21054,-2.3375 0.21054,-6.1625 0,-8.5 z m 181.72188,-8.37869 c 13.01459,-19.6014 38.50657,-33.34605 61.90638,-33.37842 2.82675,-0.004 8.10696,-0.28744 11.73382,-0.63006 l 6.59429,-0.62296 1.28428,-5.01101 c 1.90206,-7.42145 8.29278,-19.36467 14.26378,-26.65668 13.28403,-16.22295 35.32057,-27.22832 56.59424,-28.26398 l 6.33088,-0.3082 0.27725,-5.17005 c 0.91626,-17.08631 21.72982,-26.47321 34.63025,-15.61822 5.88505,4.95194 6.73755,8.15517 7.0628,26.53828 l 0.29456,16.64821 31.53669,0.30089 c 27.679,0.26409 31.9246,0.51311 34.70786,2.0358 4.59201,2.51225 7.57298,7.25057 8.11585,12.90032 0.38752,4.03302 0.0284,5.54533 -2.06983,8.71595 -4.86517,7.35177 -6.20088,7.60841 -41.44299,7.96297 l -31.2258,0.31415 0.41481,23.18585 0.41481,23.18585 32.31099,0.5 c 31.61276,0.4892 32.37989,0.54915 35.49931,2.77417 1.75358,1.2508 3.98441,4.07855 4.95741,6.2839 1.62767,3.68921 2.0123,3.96175 4.81168,3.40946 5.88737,-1.16153 15.67765,-6.68678 20.90777,-11.79952 6.0622,-5.92615 12.09165,-17.22559 13.63604,-25.5545 6.40938,-34.56592 -17.44504,-69.95192 -53.29298,-79.05561 l -6.99294,-1.77588 -2.40429,-8.32798 c -4.62809,-16.03071 -14.04218,-30.69529 -25.83523,-40.24422 -18.55281,-15.02237 -45.89156,-19.65195 -69.03296,-11.69014 l -5.35121,1.84108 -2.02754,-5.41907 c -12.05067,-32.20832 -37.78042,-56.34412 -68.82049,-64.55708 -11.24049,-2.97415 -32.25465,-3.67138 -43.28577,-1.43619 -36.0616,7.30701 -64.52091,30.90969 -78.43414,65.04922 -3.61303,8.86545 -5.14076,14.55144 -8.08422,30.08827 -0.36912,1.94833 -0.9078,2.05693 -8.16731,1.64658 -26.33767,-1.48878 -58.77689,21.27049 -69.70771,48.90673 -4.22475,10.68139 -5.56486,17.63121 -5.55742,28.82088 0.0145,21.8378 6.42195,37.54422 21.45293,52.58716 7.33026,7.3361 10.64773,9.8352 17.54007,13.21325 14.82541,7.26617 16.62634,7.5467 52.49549,8.17714 l 31.99549,0.56235 3.22114,-7.41299 c 1.77164,-4.07714 4.80551,-9.79921 6.74196,-12.7157 z m 36.04592,15.62869 c 0.99548,-1.1 1.58497,-2 1.30997,-2 -0.275,0 -1.31449,0.9 -2.30997,2 -0.99549,1.1 -1.58498,2 -1.30998,2 0.275,0 1.31449,-0.9 2.30998,-2 z m 12.02646,-8.80687 c -0.30789,-0.30789 -1.1148,-6.3e-4 -1.79313,0.68278 -0.98027,0.98762 -0.8654,1.10248 0.55979,0.5598 0.98622,-0.37553 1.54122,-0.93469 1.23334,-1.24258 z m 14.22354,-2.88245 c -0.9625,-0.25153 -2.5375,-0.25153 -3.5,0 -0.9625,0.25152 -0.175,0.45732 1.75,0.45732 1.925,0 2.7125,-0.2058 1.75,-0.45732 z M 238.14532,507.0814 c -0.31923,-0.79773 -0.55618,-0.56078 -0.60417,0.60417 -0.0434,1.05416 0.19293,1.64479 0.52522,1.3125 0.33229,-0.33229 0.36782,-1.19479 0.0789,-1.91667 z m 259.06689,1.49818 c -0.9625,-0.25153 -2.5375,-0.25153 -3.5,0 -0.9625,0.25152 -0.175,0.45732 1.75,0.45732 1.925,0 2.7125,-0.2058 1.75,-0.45732 z M 238.2054,476.9698 c -0.18486,-4.51049 -0.33516,-0.5509 -0.33401,8.7991 0.001,9.35 0.15239,13.04041 0.3361,8.2009 0.18371,-4.8395 0.18277,-12.4895 -0.002,-17 z m 0.002,-32.90342 c -0.18571,-4.56361 -0.3387,-1.09748 -0.33996,7.70252 -10e-4,8.8 0.15068,12.53387 0.33766,8.29748 0.18698,-4.23638 0.18802,-11.43638 0.002,-16 z m 0.003,-51.04748 c -0.16895,-7.8375 -0.30719,-1.425 -0.30719,14.25 0,15.675 0.13824,22.0875 0.30719,14.25 0.16896,-7.8375 0.16896,-20.6625 0,-28.5 z m -0.0315,-22.5 c -0.22912,-1.5125 -0.41659,-0.275 -0.41659,2.75 0,3.025 0.18747,4.2625 0.41659,2.75 0.22912,-1.5125 0.22912,-3.9875 0,-5.5 z m -0.0331,-5.4375 c -0.31923,-0.79773 -0.55618,-0.56078 -0.60417,0.60417 -0.0434,1.05416 0.19293,1.64479 0.52522,1.3125 0.33229,-0.33229 0.36782,-1.19479 0.0789,-1.91667 z m 0,-6 c -0.31923,-0.79773 -0.55618,-0.56078 -0.60417,0.60417 -0.0434,1.05416 0.19293,1.64479 0.52522,1.3125 0.33229,-0.33229 0.36782,-1.19479 0.0789,-1.91667 z m 0.0226,-8.0625 c -0.23835,-1.2375 -0.43337,-0.225 -0.43337,2.25 0,2.475 0.19502,3.4875 0.43337,2.25 0.23835,-1.2375 0.23835,-3.2625 0,-4.5 z m 3.26364,-11.25 c 0,-0.55 -0.43622,-0.325 -0.96937,0.5 -0.53316,0.825 -0.96938,1.95 -0.96938,2.5 0,0.55 0.43622,0.325 0.96938,-0.5 0.53315,-0.825 0.96937,-1.95 0.96937,-2.5 z m 536.15763,-2.25 c -0.51885,-0.9625 -2.1924,-2.875 -3.719,-4.25 -2.30208,-2.07346 -2.18979,-1.77796 0.65817,1.73198 3.717,4.58097 4.53616,5.25486 3.06083,2.51802 z m -533.99945,-1 c 1.24387,-1.58605 1.2085,-1.62142 -0.37755,-0.37755 -0.9625,0.75484 -1.75,1.54234 -1.75,1.75 0,0.82303 0.82118,0.2933 2.12755,-1.37245 z m 12.87245,-9.82037 c 0,-0.275 -0.9,-0.0183 -2,0.57037 -1.1,0.5887 -2,1.29537 -2,1.57037 0,0.275 0.9,0.0183 2,-0.57037 1.1,-0.5887 2,-1.29537 2,-1.57037 z m 17,-10 c 0,-0.275 -0.9,-0.0183 -2,0.57037 -1.1,0.5887 -2,1.29537 -2,1.57037 0,0.275 0.9,0.0183 2,-0.57037 1.1,-0.5887 2,-1.29537 2,-1.57037 z m 464,-5.82264 c 0,-0.21616 -0.69838,-0.661 -1.55194,-0.98855 -0.88993,-0.34149 -1.29132,-0.17384 -0.94098,0.39302 0.58725,0.9502 2.49292,1.40544 2.49292,0.59553 z m -418,-21.17736 c 0,-0.275 -0.9,-0.0183 -2,0.57037 -1.1,0.5887 -2,1.29537 -2,1.57037 0,0.275 0.9,0.0183 2,-0.57037 1.1,-0.5887 2,-1.29537 2,-1.57037 z m 380,-0.89445 c 0,-0.25564 -1.0125,-0.95547 -2.25,-1.55516 -2.16063,-1.04704 -2.1729,-1.02858 -0.30887,0.46482 2.04026,1.63458 2.55887,1.85556 2.55887,1.09034 z m -12,-7 c 0,-0.25564 -1.0125,-0.95547 -2.25,-1.55516 -2.16063,-1.04704 -2.1729,-1.02858 -0.30887,0.46482 2.04026,1.63458 2.55887,1.85556 2.55887,1.09034 z m -10,-6 c 0,-0.25564 -1.0125,-0.95547 -2.25,-1.55516 -2.16063,-1.04704 -2.1729,-1.02858 -0.30887,0.46482 2.04026,1.63458 2.55887,1.85556 2.55887,1.09034 z m -5,-3 c 0,-0.25564 -1.0125,-0.95547 -2.25,-1.55516 -2.16063,-1.04704 -2.1729,-1.02858 -0.30887,0.46482 2.04026,1.63458 2.55887,1.85556 2.55887,1.09034 z m -5,-3 c 0,-0.25564 -1.0125,-0.95547 -2.25,-1.55516 -2.16063,-1.04704 -2.1729,-1.02858 -0.30887,0.46482 2.04026,1.63458 2.55887,1.85556 2.55887,1.09034 z m -306,-5.10555 c 0,-0.275 -0.9,-0.0183 -2,0.57037 -1.1,0.5887 -2,1.29537 -2,1.57037 0,0.275 0.9,0.0183 2,-0.57037 1.1,-0.5887 2,-1.29537 2,-1.57037 z m 5,-3 c 0,-0.275 -0.9,-0.0183 -2,0.57037 -1.1,0.5887 -2,1.29537 -2,1.57037 0,0.275 0.9,0.0183 2,-0.57037 1.1,-0.5887 2,-1.29537 2,-1.57037 z m 279,-4.89445 c 0,-0.25564 -1.0125,-0.95547 -2.25,-1.55516 -2.16063,-1.04704 -2.1729,-1.02858 -0.30887,0.46482 2.04026,1.63458 2.55887,1.85556 2.55887,1.09034 z m -247,-14.10555 c 0,-0.275 -0.9,-0.0183 -2,0.57037 -1.1,0.5887 -2,1.29537 -2,1.57037 0,0.275 0.9,0.0183 2,-0.57037 1.1,-0.5887 2,-1.29537 2,-1.57037 z m 219,-2.89445 c 0,-0.25564 -1.0125,-0.95547 -2.25,-1.55516 -2.16063,-1.04704 -2.1729,-1.02858 -0.30887,0.46482 2.04026,1.63458 2.55887,1.85556 2.55887,1.09034 z m -17,-10 c 0,-0.25564 -1.0125,-0.95547 -2.25,-1.55516 -2.16063,-1.04704 -2.1729,-1.02858 -0.30887,0.46482 2.04026,1.63458 2.55887,1.85556 2.55887,1.09034 z m -5,-3 c 0,-0.25564 -1.0125,-0.95547 -2.25,-1.55516 -2.16063,-1.04704 -2.1729,-1.02858 -0.30887,0.46482 2.04026,1.63458 2.55887,1.85556 2.55887,1.09034 z m -165,-3.10555 c 0,-0.275 -0.9,-0.0183 -2,0.57037 -1.1,0.5887 -2,1.29537 -2,1.57037 0,0.275 0.9,0.0183 2,-0.57037 1.1,-0.5887 2,-1.29537 2,-1.57037 z m 5,-3 c 0,-0.275 -0.9,-0.0183 -2,0.57037 -1.1,0.5887 -2,1.29537 -2,1.57037 0,0.275 0.9,0.0183 2,-0.57037 1.1,-0.5887 2,-1.29537 2,-1.57037 z m 140,-5.89445 c 0,-0.25564 -1.0125,-0.95547 -2.25,-1.55516 -2.16063,-1.04704 -2.1729,-1.02858 -0.30887,0.46482 2.04026,1.63458 2.55887,1.85556 2.55887,1.09034 z m -12,-7 c 0,-0.25564 -1.0125,-0.95547 -2.25,-1.55516 -2.16063,-1.04704 -2.1729,-1.02858 -0.30887,0.46482 2.04026,1.63458 2.55887,1.85556 2.55887,1.09034 z m -5,-3 c 0,-0.25564 -1.0125,-0.95547 -2.25,-1.55516 -2.16063,-1.04704 -2.1729,-1.02858 -0.30887,0.46482 2.04026,1.63458 2.55887,1.85556 2.55887,1.09034 z m -5,-3 c 0,-0.25564 -1.0125,-0.95547 -2.25,-1.55516 -2.16063,-1.04704 -2.1729,-1.02858 -0.30887,0.46482 2.04026,1.63458 2.55887,1.85556 2.55887,1.09034 z m -79,-4.10555 c 0,-0.275 -0.9,-0.0183 -2,0.57037 -1.1,0.5887 -2,1.29537 -2,1.57037 0,0.275 0.9,0.0183 2,-0.57037 1.1,-0.5887 2,-1.29537 2,-1.57037 z m 12,-7 c 0,-0.275 -0.9,-0.0183 -2,0.57037 -1.1,0.5887 -2,1.29537 -2,1.57037 0,0.275 0.9,0.0183 2,-0.57037 1.1,-0.5887 2,-1.29537 2,-1.57037 z m 52,2.10555 c 0,-0.25564 -1.0125,-0.95547 -2.25,-1.55516 -2.16063,-1.04704 -2.1729,-1.02858 -0.30887,0.46482 2.04026,1.63458 2.55887,1.85556 2.55887,1.09034 z m -40,-9.10555 c 0,-0.275 -0.9,-0.0183 -2,0.57037 -1.1,0.5887 -2,1.29537 -2,1.57037 0,0.275 0.9,0.0183 2,-0.57037 1.1,-0.5887 2,-1.29537 2,-1.57037 z m 23,-0.90395 c 0,-0.60652 -5.64064,-3.53931 -6.70034,-3.48376 -0.43982,0.023 0.77534,0.90419 2.70034,1.95808 3.94147,2.15787 4,2.18019 4,1.52568 z m -17.47354,-2.33255 c -0.30789,-0.30789 -1.1148,-6.3e-4 -1.79313,0.68278 -0.98027,0.98762 -0.8654,1.10248 0.55979,0.5598 0.98622,-0.37553 1.54122,-0.93469 1.23334,-1.24258 z m 8.74257,-1.84907 c -0.67703,-0.27392 -2.02703,-0.29059 -3,-0.037 -0.97297,0.25354 -0.41903,0.47766 1.23097,0.49804 1.65,0.0204 2.44606,-0.18706 1.76903,-0.46099 z"
         id="path14" />
      <path
         style="fill:#2a799b"
         d="m 496.80917,840.28363 c -3.93417,-1.03133 -9.10917,-2.8628 -11.5,-4.06992 -5.35107,-2.70176 -82.10083,-48.38805 -253.34696,-150.80809 -9.08824,-5.43555 -18.60642,-15.53356 -22.86852,-24.26162 -7.0756,-14.48962 -6.63148,-3.15889 -6.63148,-169.19085 0,-165.4269 -0.39497,-154.86251 6.3065,-168.68425 2.20439,-4.54653 5.56634,-8.90427 11.1866,-14.5 7.18841,-7.15704 10.93124,-9.69557 35.52098,-24.09171 26.40125,-15.45669 67.51819,-39.71401 118.48592,-69.90185 120.65749,-71.46463 113.86999,-67.61746 123.77532,-70.15616 8.19862,-2.10128 21.98245,-1.40129 30.22468,1.53492 6.96248,2.48032 7.67782,2.88723 67,38.11211 24.75,14.69629 72.9,43.26837 107,63.49353 34.1,20.22515 68.51429,40.65114 76.47621,45.39108 17.37605,10.34443 26.56223,18.8043 32.26104,29.71028 7.22723,13.83096 6.76422,2.14364 6.74937,170.3679 l -0.0134,151.5399 -2.80465,8.05638 c -3.449,9.90729 -8.68278,17.95937 -15.79199,24.2957 -2.97396,2.65065 -18.56282,12.71059 -34.6419,22.35543 -135.21479,81.10691 -224.78498,134.38905 -230.08328,136.86843 -7.32369,3.42716 -17.97702,5.90573 -25.15142,5.85164 -2.75,-0.0207 -8.21887,-0.88152 -12.15304,-1.91285 z m 58.43655,-58.01473 11.18234,-6.5 0.0171,-71.57568 0.0171,-71.57569 2.44695,-2.29879 2.44695,-2.2988 28.04722,0.46422 c 25.30068,0.41875 28.24363,0.64197 30.05304,2.27946 1.95864,1.77255 2.00584,3.03501 2.00584,53.66027 0,28.51476 0.24626,51.84501 0.54725,51.84501 0.90247,0 130.96673,-77.30357 139.22702,-82.74945 3.24926,-2.14219 6.32079,-5.25745 8,-8.1139 l 2.72573,-4.63665 v -147.5 c 0,-147.46856 -4.5e-4,-147.50096 -2.08815,-152.01122 -1.14848,-2.48118 -3.49128,-5.91436 -5.20621,-7.62929 -1.71494,-1.71494 -23.27527,-14.95801 -47.91186,-29.42905 C 702.11941,289.72829 656.98721,262.96496 626.46221,244.72526 517.4404,179.5811 516.60866,179.09823 512.46289,178.54217 c -2.27754,-0.30549 -5.34153,0.0395 -7.20449,0.81115 -4.50425,1.86572 -36.11403,20.36668 -122.29619,71.579 -40.7,24.18529 -87.725,52.01893 -104.5,61.85252 -17.41416,10.20827 -32.06516,19.48272 -34.14801,21.61655 -7.36017,7.54031 -6.90854,-3.37743 -6.61514,159.91512 l 0.26315,146.45239 2.70683,4.60442 c 1.85139,3.14926 4.6957,5.87497 9,8.62468 5.07411,3.24149 69.9372,42.11527 71.78321,43.02115 0.28048,0.13763 0.37531,-23.26237 0.21074,-52 -0.20349,-35.53409 0.0487,-53.4481 0.7884,-55.99442 1.86146,-6.4082 3.48288,-6.75583 31.51082,-6.75583 20.82852,0 25.08989,0.25132 27.79966,1.63953 1.76018,0.90175 3.53414,2.13925 3.94213,2.75 0.40798,0.61076 0.73413,34.38845 0.72477,75.06153 l -0.017,73.95106 7.27522,4.40414 c 4.00138,2.42228 8.62523,5.22411 10.27523,6.22629 l 3,1.82215 -0.31758,-97.17735 c -0.34629,-105.96254 -0.0689,-113.40333 4.75038,-127.43856 4.08637,-11.90073 8.36789,-18.53173 18.65107,-28.8858 7.76627,-7.81981 10.45059,-9.8062 18.50025,-13.69014 12.73967,-6.14684 19.78568,-7.77702 36.859,-8.52776 l 14.44312,-0.63509 1.68941,-5.5 c 4.89084,-15.9225 15.17662,-30.34652 28.92435,-40.56137 10.36419,-7.70081 26.10567,-13.30696 39.75,-14.15653 l 9.25,-0.57595 v -5.6529 c 0,-4.38611 0.57992,-6.54729 2.58781,-9.64392 6.73884,-10.39283 20.69642,-13.33243 30.29377,-6.38015 6.90668,5.00318 7.55202,7.14712 8.11842,26.97082 l 0.5,17.5 32.68593,0.5 32.68593,0.5 3.15335,3 c 8.30867,7.90463 7.78871,17.13489 -1.34679,23.90805 -2.70593,2.00622 -4.15059,2.10381 -35.25,2.38128 l -32.42842,0.28933 v 23.96067 23.96067 h 31.85211 c 31.47466,0 31.8921,0.0269 35.22621,2.2738 10.97824,7.39824 10.45293,20.66597 -1.04829,26.4762 -4.33143,2.18817 -5.29983,2.25 -35.24192,2.25 h -30.78811 l -0.022,16.25 c -0.0185,13.65598 -0.31666,16.88853 -1.86808,20.25 -6.16602,13.35998 -24.79206,15.59865 -34.81398,4.18432 -2.9528,-3.36306 -5.27713,-8.97915 -5.2904,-12.78278 -0.004,-1.24555 -1.88877,-1.8619 -8.53526,-2.7917 -32.44231,-4.53845 -57.88463,-24.69491 -66.62183,-52.78056 l -2.34848,-7.54919 -12,0.56212 c -13.36129,0.62588 -20.95276,2.49717 -26.99481,6.65422 -6.10063,4.19734 -12.36876,11.48 -15.34479,17.82842 l -2.6604,5.67515 -0.2663,115.62532 -0.2663,115.62533 12.82292,7.62467 c 7.05261,4.19358 13.02244,7.62471 13.2663,7.62474 0.24386,4e-5 0.32666,-46.20397 0.18401,-102.67557 l -0.25937,-102.67564 2.18368,-2.32442 2.18368,-2.32443 h 28.32569 c 26.99235,0 28.41983,0.0941 30.32569,2 1.81144,1.81144 2.00125,3.34348 2.01332,16.25 0.007,7.8375 0.004,56.25129 -0.006,107.58619 l -0.0196,93.33619 4.80691,-2.83619 c 2.64379,-1.5599 9.83895,-5.76119 15.98924,-9.33619 z"
         id="path13" />
      <path
         style="fill:#084568"
         d="m 498.5236,840.77454 c -8.51771,-1.92745 -16.04845,-5.87296 -50.56139,-26.49021 C 287.05964,718.16477 243.61531,692.216 235.51715,687.39349 c -16.98114,-10.11237 -26.92718,-22.4852 -31.0578,-38.63576 -1.95236,-7.63363 -1.99714,-11.15318 -1.99714,-156.93869 0,-164.99385 -0.4292,-153.96413 6.54725,-168.25481 4.11234,-8.42379 11.52603,-16.92369 19.37749,-22.21657 3.06639,-2.06713 23.12526,-14.10766 44.57526,-26.75672 21.45,-12.64906 75,-44.30339 119,-70.34296 98.1851,-58.10675 93.61337,-55.48452 101.5,-58.21801 5.31254,-1.84132 8.50953,-2.2356 17.5,-2.15821 12.49888,0.10759 18.41907,1.7708 29.49038,8.28498 17.02914,10.01968 218.7482,129.71737 235.00962,139.45191 21.80531,13.05328 29.27889,19.77752 35.26023,31.72484 7.19371,14.36898 6.73977,2.96941 6.73977,169.25117 0,166.70454 0.46278,155.25019 -6.83519,169.17873 -7.57428,14.45591 -6.19143,13.5036 -108.16481,74.48863 -50.875,30.42572 -108.25,64.77686 -127.5,76.33587 -35.51612,21.3263 -43.34437,25.49959 -51.61542,27.51654 -8.01959,1.95562 -17.95681,2.22387 -24.82319,0.67011 z m 18.3371,-35.89878 c 1.83384,-0.76623 11.15688,-6.10217 20.71788,-11.85766 17.93391,-10.79578 34.82381,-20.83023 69.38363,-41.2215 11,-6.49031 23.15,-13.71194 27,-16.04807 3.85,-2.33613 36.025,-21.46877 71.5,-42.517 35.475,-21.04822 66.37013,-39.77086 68.65586,-41.60587 2.28572,-1.83501 5.10409,-5.29517 6.26304,-7.68924 l 2.10719,-4.35287 -0.26305,-147.4343 -0.26304,-147.43431 -2.55815,-4.97302 c -3.35729,-6.52656 -6.90791,-9.08842 -36.64661,-26.44148 C 713.10676,295.99874 678.52,275.51378 630.46221,246.7905 505.94918,172.3713 513.5113,176.60911 507.96176,178.14141 c -4.62322,1.27654 -46.2617,25.49766 -135.99955,79.111 -25.69173,15.34937 -52.83333,31.39064 -104.5,61.76176 -10.725,6.30445 -20.93259,12.82515 -22.68353,14.49043 -1.75094,1.66528 -4.11784,5.19965 -5.25978,7.85415 -2.07455,4.82242 -2.07604,4.94747 -1.81647,152.69144 l 0.25978,147.86507 2.82811,4.27341 c 3.58488,5.41694 -10.79048,-3.47285 140.14493,86.66625 13.73518,8.20269 25.38187,15.08371 25.88154,15.29116 0.54333,0.22558 0.67239,-37.75783 0.3211,-94.5 -0.34182,-55.2124 -0.19927,-99.89395 0.34096,-106.87718 1.17566,-15.19678 2.84446,-21.65509 8.6556,-33.49743 3.89695,-7.9415 6.06671,-10.8904 13.24411,-18 16.54074,-16.3845 33.81217,-22.92993 60.6446,-22.98276 l 10.06095,-0.0198 1.34332,-5.24139 c 5.24806,-20.47683 24.45116,-41.70771 45.25827,-50.03736 8.00915,-3.20629 19.98091,-5.72125 27.23435,-5.72125 h 5.54216 v -5.09887 c 0,-6.43555 2.16837,-11.03344 7.25789,-15.38988 9.34604,-7.99987 23.91946,-6.24001 30.49099,3.68204 2.70385,4.08242 2.7568,4.46005 3.0821,21.98025 l 0.33098,17.82646 h 31.77114 c 31.30163,0 31.81998,0.0333 35.07707,2.25 5.36262,3.64977 7.48983,7.27093 7.48983,12.75 0,5.24457 -1.93526,8.74157 -6.88337,12.43821 -2.63422,1.96799 -4.23513,2.07495 -35.18821,2.35112 l -32.42842,0.28933 v 23.96067 23.96067 h 31.85211 c 31.38562,0 31.90054,0.0329 35.15806,2.25 10.16958,6.92136 10.48277,19.08433 0.65891,25.58924 l -4.01834,2.66076 -31.76016,0.30164 -31.76016,0.30164 -0.31521,16.69836 c -0.37311,19.76538 -1.38361,22.76584 -9.32836,27.69836 -4.17483,2.59197 -5.75979,2.99238 -11.65306,2.94395 -5.90655,-0.0485 -7.39051,-0.45631 -11.06892,-3.04159 -4.75359,-3.34095 -8.35038,-8.98949 -9.29881,-14.60325 -0.57297,-3.39136 -0.97327,-3.78823 -4.29893,-4.26209 -11.49689,-1.63814 -21.51441,-4.04067 -27.85832,-6.68134 -20.0928,-8.36368 -36.64051,-26.39089 -43.83826,-47.75776 l -2.15663,-6.40208 -8.40696,0.19783 c -19.10759,0.44964 -27.81729,3.39597 -37.01633,12.52194 -7.3923,7.33358 -10.72922,14.39553 -11.98876,25.37189 -0.6272,5.46578 -0.79242,34.23907 -0.44336,77.2125 0.30601,37.675 0.55304,86.15112 0.54894,107.72472 l -0.007,39.22471 26.25,15.66605 c 14.4375,8.61633 28.5,16.72331 31.25,18.01552 5.68824,2.67286 11.04941,3.00194 15.89849,0.97586 z M 469.6201,731.2689 c 0,-1.375 0.22697,-1.9375 0.50439,-1.25 0.27741,0.6875 0.27741,1.8125 0,2.5 -0.27742,0.6875 -0.50439,0.125 -0.50439,-1.25 z m 160.92105,-7.58333 c 0.048,-1.16495 0.28494,-1.4019 0.60417,-0.60417 0.28887,0.72188 0.25334,1.58438 -0.0789,1.91667 -0.33229,0.33229 -0.56864,-0.25834 -0.52522,-1.3125 z m 0,-6 c 0.048,-1.16495 0.28494,-1.4019 0.60417,-0.60417 0.28887,0.72188 0.25334,1.58438 -0.0789,1.91667 -0.33229,0.33229 -0.56864,-0.25834 -0.52522,-1.3125 z m -161,-29 c 0.048,-1.16495 0.28494,-1.4019 0.60417,-0.60417 0.28887,0.72188 0.25334,1.58438 -0.079,1.91667 -0.33229,0.33229 -0.56864,-0.25834 -0.52522,-1.3125 z m 97,-19 c 0.048,-1.16495 0.28494,-1.4019 0.60417,-0.60417 0.28887,0.72188 0.25334,1.58438 -0.0789,1.91667 -0.33229,0.33229 -0.56864,-0.25834 -0.52522,-1.3125 z m -181,-13 c 0.048,-1.16495 0.28494,-1.4019 0.60417,-0.60417 0.28887,0.72188 0.25334,1.58438 -0.079,1.91667 -0.33229,0.33229 -0.56864,-0.25834 -0.52522,-1.3125 z m 0,-15 c 0.048,-1.16495 0.28494,-1.4019 0.60417,-0.60417 0.28887,0.72188 0.25334,1.58438 -0.079,1.91667 -0.33229,0.33229 -0.56864,-0.25834 -0.52522,-1.3125 z m 0.27047,-11.41667 c 0,-4.675 0.17226,-6.5875 0.38279,-4.25 0.21054,2.3375 0.21054,6.1625 0,8.5 -0.21053,2.3375 -0.38279,0.425 -0.38279,-4.25 z m -0.27047,-11.58333 c 0.048,-1.16495 0.28494,-1.4019 0.60417,-0.60417 0.28887,0.72188 0.25334,1.58438 -0.079,1.91667 -0.33229,0.33229 -0.56864,-0.25834 -0.52522,-1.3125 z m 0.0789,-7.41667 c 0,-1.375 0.22697,-1.9375 0.50439,-1.25 0.27741,0.6875 0.27741,1.8125 0,2.5 -0.27742,0.6875 -0.50439,0.125 -0.50439,-1.25 z m 0,-8 c 0,-1.375 0.22697,-1.9375 0.50439,-1.25 0.27741,0.6875 0.27741,1.8125 0,2.5 -0.27742,0.6875 -0.50439,0.125 -0.50439,-1.25 z"
         id="path12" />
    </g>
    <path
       style="fill:#ffffff;stroke-width:1.2689"
       d="m 371.15243,558.30177 c -19.60514,-0.81424 -21.54297,-1.12345 -30.46712,-4.86144 -20.71469,-8.67659 -38.63971,-29.81459 -42.99557,-50.7023 -5.3818,-25.8074 2.83314,-53.19141 21.37479,-71.25153 14.6523,-14.27179 30.30441,-21.64693 47.98346,-22.6094 10.67295,-0.58105 11.81101,-0.88722 12.34516,-3.32116 3.3497,-15.26357 6.3213,-25.09183 9.98237,-33.01575 12.94485,-28.01744 33.8133,-46.99872 63.10859,-57.40159 12.51632,-4.44461 39.08452,-5.67146 53.47702,-2.46944 31.7265,7.05847 60.2152,33.9061 72.3789,68.20941 0.6952,1.96054 1.2807,1.94913 8.1265,-0.1584 31.3672,-9.65665 64.824,2.45326 82.3136,29.79392 2.637,4.12228 6.6363,12.65489 8.8874,18.96136 l 4.0929,11.4663 10.5948,3.59663 c 26.443,8.97654 45.1107,30.2126 49.5413,56.35715 3.7889,22.35775 -6.8575,44.6675 -25.8267,54.12023 -8.5005,4.23602 -10.6906,4.1531 -13.0946,-0.49576 -4.0796,-7.88898 -5.5991,-8.21793 -40.0637,-8.67295 l -31.2937,-0.41318 -0.8052,-7.70358 c -0.4428,-4.23696 -0.8052,-14.41407 -0.8052,-22.61582 v -14.91224 l 31.4052,-0.53678 c 19.6393,-0.33568 32.7123,-1.08501 34.8941,-2.0001 4.2634,-1.78817 8.5545,-8.49947 8.5609,-13.38933 0.01,-5.02878 -3.5613,-12.03015 -7.4186,-14.55754 -2.7562,-1.8059 -7.9882,-2.18952 -35.1993,-2.58082 l -31.9619,-0.45963 -0.4824,-17.56696 c -0.557,-20.2816 -1.5329,-22.60547 -11.6162,-27.66183 -7.0862,-3.55344 -14.5982,-3.03217 -21.3974,1.48478 -4.724,3.13834 -9.9269,12.32259 -9.9269,17.52307 0,3.17523 -0.4745,3.47658 -6.6617,4.23038 -23.0694,2.81065 -41.7121,12.0574 -55.1256,27.34226 -4.9065,5.59096 -12.8958,20.03886 -14.9485,27.03256 l -1.5626,5.32432 -12.5584,1.00999 c -19.1521,1.54029 -26.7784,3.39368 -38.90889,9.45593 -15.47144,7.7319 -26.3906,18.62612 -33.70525,33.62825 l -5.41346,11.10285 -12.94565,-0.20615 c -7.12011,-0.11339 -22.36721,-0.59746 -33.88245,-1.07571 z"
       id="path15" />
    <path
       style="fill:#ffffff;stroke-width:1.2689"
       d="m 371.15243,558.32119 c -19.70454,-0.78565 -21.49768,-1.0713 -30.46635,-4.85345 -20.13414,-8.49067 -37.95489,-28.86473 -42.42046,-48.49834 -7.65631,-33.66224 5.76894,-66.07566 35.26931,-85.15288 10.79308,-6.97964 20.11169,-10.093 33.04307,-11.03975 8.12957,-0.5952 11.55838,-1.35876 12.2577,-2.72969 0.534,-1.04684 2.16225,-7.04238 3.61833,-13.32342 5.46915,-23.59211 19.22016,-45.56388 37.48108,-59.88841 10.38299,-8.14479 28.41171,-17.10461 40.12122,-19.93922 12.0677,-2.92131 36.1627,-2.70321 48.4468,0.43853 30.9484,7.91525 57.955,34.03517 69.8369,67.54401 0.6946,1.95893 1.2864,1.94562 8.1265,-0.18276 23.4834,-7.30712 51.0413,-1.75852 69.1624,13.92541 8.4558,7.31859 17.4795,21.56676 22.1032,34.90046 l 3.9601,11.42007 10.2683,3.35687 c 12.1079,3.95826 25.991,12.79297 33.2248,21.14308 7.3966,8.53812 14.9041,24.43988 16.7382,35.45383 3.7508,22.52267 -6.8103,44.63055 -25.8537,54.12023 -8.5005,4.23602 -10.6906,4.1531 -13.0946,-0.49576 -4.0796,-7.88914 -5.5986,-8.21791 -40.069,-8.67302 l -31.2991,-0.41321 -0.7888,-6.56572 c -0.4339,-3.61114 -0.7938,-13.78216 -0.7999,-22.60227 l -0.011,-16.03656 31.4052,-0.55436 c 34.3871,-0.607 36.6398,-1.04858 40.9531,-8.02765 3.0307,-4.90379 3.1819,-9.56318 0.494,-15.22749 -3.9731,-8.3726 -5.2443,-8.66161 -40.6548,-9.24228 l -31.8817,-0.52282 -0.563,-17.63941 c -0.6443,-20.19048 -1.5747,-22.4657 -11.2471,-27.50576 -13.1,-6.82605 -28.6402,1.76525 -31.108,17.19784 l -0.8414,5.26172 -7.1455,0.7791 c -10.838,1.1817 -26.5096,6.34252 -35.5229,11.69803 -14.548,8.64416 -29.2583,27.25893 -33.8207,42.79777 l -1.51,5.1427 -10.6541,0.95516 c -19.8954,1.78369 -27.9599,3.49033 -37.651,7.96792 -18.03384,8.33213 -28.57109,18.70925 -37.64658,37.07444 l -4.54611,9.1995 -12.9888,-0.21383 c -7.14384,-0.1176 -22.41037,-0.58948 -33.92561,-1.04861 z"
       id="path16" />
    <path
       style="fill:#ffffff;stroke-width:1.2689"
       d="m 369.24909,558.31897 c -17.41712,-0.77767 -19.82221,-1.18378 -28.32155,-4.78221 -15.33465,-6.49236 -26.82188,-16.85023 -36.48579,-32.89876 -8.64513,-14.35664 -10.76292,-38.95048 -4.94103,-57.38001 9.46034,-29.94726 40.27317,-54.62272 68.2959,-54.69255 4.28833,-0.0107 8.53699,-0.48889 9.44149,-1.06266 0.90449,-0.57378 3.04469,-6.70333 4.75599,-13.62122 8.32461,-33.65205 29.06846,-59.82144 58.31323,-73.56502 15.80962,-7.42974 25.0267,-9.43675 43.3378,-9.43675 17.0966,0 29.7691,2.55557 41.2394,8.31642 22.1984,11.14897 41.0789,31.44708 50.1906,53.95933 3.8594,9.5354 4.1935,9.71272 13.168,6.98867 10.092,-3.0632 21.2542,-3.57393 32.8467,-1.50291 27.3475,4.88567 47.5867,23.27423 57.2212,51.98908 l 3.3882,10.09847 11.3366,3.94059 c 43.8131,15.2294 63.7304,65.32691 38.8097,97.61671 -5.1334,6.65123 -16.242,14.22644 -22.7454,15.51052 -3.5658,0.70407 -4.2498,0.34945 -6.0536,-3.13884 -4.1556,-8.03599 -5.5884,-8.35147 -40.1528,-8.84116 l -31.3071,-0.44355 -0.7896,-5.76082 c -0.4342,-3.16844 -0.7896,-13.31111 -0.7896,-22.53925 v -16.77844 l 31.4052,-0.64396 c 34.3169,-0.70366 36.7335,-1.17593 40.9531,-8.00344 3.1533,-5.10215 3.1746,-9.54351 0.074,-15.54412 -4.1704,-8.07195 -4.9162,-8.23625 -40.393,-8.8975 l -32.0397,-0.59718 v -13.0881 c 0,-17.41489 -1.6917,-24.96449 -6.5009,-29.01118 -13.4721,-11.33597 -33.2645,-3.54277 -36.1042,14.2159 -0.8257,5.16363 -0.9731,5.2961 -6.7181,6.03728 -11.8451,1.52817 -23.6246,4.90829 -32.4048,9.29855 -12.9709,6.48569 -26.5353,20.37102 -33.5068,34.29978 -2.9207,5.83539 -5.3104,11.7036 -5.3104,13.04048 0,3.16924 -0.5974,3.3301 -17.7646,4.78335 -17.0976,1.44734 -27.98,4.54886 -39.20904,11.17473 -12.24765,7.2269 -21.66267,17.35652 -28.57941,30.74861 l -5.92703,11.47582 -14.8498,-0.20741 c -8.1674,-0.11408 -23.41486,-0.58984 -33.88326,-1.05725 z"
       id="path17" />
    <path
       style="fill:#ffffff;stroke-width:1.2689"
       d="m 368.61464,558.31589 c -16.60167,-0.77374 -19.29298,-1.2355 -27.55036,-4.72705 -11.15974,-4.71878 -20.09935,-11.12649 -26.96744,-19.32967 -13.01686,-15.54721 -17.80934,-28.82458 -17.80934,-49.34008 0,-20.44652 7.44331,-38.07857 22.30156,-52.82895 15.04991,-14.94065 32.58544,-23.38962 48.75668,-23.49194 4.53631,-0.0287 8.8968,-0.4717 9.68998,-0.98444 0.79317,-0.51273 2.94626,-6.64227 4.78463,-13.62121 9.08844,-34.50213 29.16635,-59.79968 58.54587,-73.76596 17.09424,-8.12617 25.49661,-9.71631 47.52471,-8.99397 14.0214,0.45979 20.0663,1.20446 25.4065,3.12982 16.324,5.8855 29.3745,14.46458 41.271,27.13067 8.6131,9.17025 13.8102,16.98223 19.7965,29.75661 2.7548,5.87857 5.695,10.68213 6.5338,10.67457 0.8388,-0.008 4.1438,-0.80859 7.3444,-1.78008 23.9555,-7.2712 52.7572,-0.0626 70.1808,17.56507 9.4844,9.59551 15.2569,19.1214 19.8094,32.68956 l 3.4659,10.33001 11.3366,3.94059 c 43.8264,15.23404 63.738,65.31706 38.8097,97.61671 -5.1048,6.61418 -16.2336,14.22493 -22.6534,15.49212 -3.5112,0.69307 -4.2149,0.28923 -6.6304,-3.80474 -1.4863,-2.51905 -4.2867,-5.24289 -6.2231,-6.05298 -2.2021,-0.92121 -14.9916,-1.67479 -34.1463,-2.01198 l -30.6255,-0.53911 -0.7657,-4.63021 c -0.4212,-2.54663 -0.772,-12.68105 -0.7797,-22.52096 l -0.014,-17.89074 30.81,-0.69229 c 34.9219,-0.7847 38.4238,-1.53005 41.933,-8.92496 1.1671,-2.45949 2.122,-5.73526 2.122,-7.2795 0,-4.25501 -4.9757,-12.21327 -8.7253,-13.95561 -2.1924,-1.01874 -13.9988,-1.77461 -34.575,-2.21356 l -31.2458,-0.66657 -0.5787,-16.63335 c -0.6594,-18.94874 -2.0311,-22.95317 -9.429,-27.52531 -12.991,-8.02893 -30.4327,0.57151 -32.9145,16.23004 -0.8296,5.2347 -0.9598,5.3526 -6.7199,6.08838 -11.165,1.4262 -22.4031,4.61101 -31.2517,8.8565 -16.4533,7.89413 -31.632,24.98303 -38.0884,42.88164 l -2.8474,7.89364 -11.2545,1.03804 c -29.8889,2.75674 -43.57357,8.22967 -58.98576,23.59029 -7.2169,7.19276 -10.99612,12.28288 -14.9237,20.1003 l -5.25947,10.4684 -15.52983,-0.20512 c -8.5414,-0.11282 -23.80938,-0.59099 -33.92883,-1.06262 z"
       id="path18" />
    <path
       style="fill:#ffffff;stroke-width:1.2689"
       d="m 368.61464,558.27773 c -14.33519,-0.69783 -20.00647,-1.51193 -25.67682,-3.68588 -20.82189,-7.98283 -38.51534,-27.15756 -44.29599,-48.00438 -2.88637,-10.40915 -3.11462,-29.68037 -0.46941,-39.63333 3.44947,-12.97912 10.3391,-24.83175 20.13236,-34.63482 15.1173,-15.13246 32.77349,-23.63769 49.20281,-23.70169 5.65674,-0.022 8.89595,-0.61866 9.8951,-1.82257 0.81697,-0.98439 2.89594,-7.12268 4.61993,-13.64064 8.98385,-33.96565 29.54999,-59.47553 59.1214,-73.33317 16.54178,-7.75173 24.98161,-9.30235 46.74691,-8.58863 14.0214,0.45979 20.0663,1.20446 25.4065,3.12982 16.324,5.8855 29.3745,14.46458 41.271,27.13067 8.6331,9.19155 13.8116,16.98517 19.8551,29.88167 4.4096,9.40987 5.4223,10.73005 7.8027,10.17149 18.5663,-4.35663 22.3615,-4.86258 30.8933,-4.11848 18.5209,1.61527 33.4239,8.31888 45.4379,20.43871 9.275,9.35668 14.9754,18.73742 19.7298,32.4678 l 3.6009,10.39905 10.2723,3.44661 c 16.7967,5.63568 29.4665,15.142 38.5329,28.91167 8.8725,13.47524 11.3876,21.47339 11.4373,36.37056 0.049,14.73479 -2.4297,22.64563 -10.2851,32.82396 -5.1099,6.62084 -16.2351,14.2252 -22.6699,15.49542 -3.5269,0.6962 -4.2493,0.2856 -6.8223,-3.87771 -1.5828,-2.56101 -4.3758,-5.26859 -6.2067,-6.01685 -1.8878,-0.77155 -16.5877,-1.6219 -33.9584,-1.9644 l -30.6297,-0.60394 -0.7616,-4.60481 c -0.4188,-2.53266 -0.7678,-12.74163 -0.7755,-22.68661 l -0.014,-18.08179 18.7163,-0.0173 c 18.531,-0.0172 36.6507,-0.82164 44.1891,-1.96189 8.9032,-1.34672 14.1516,-12.47072 9.7997,-20.77073 -4.6572,-8.8824 -5.2551,-9.02788 -40.5719,-9.87195 l -31.7882,-0.75972 -0.636,-16.6674 c -0.8355,-21.89652 -2.7782,-25.70883 -15.1704,-29.77025 -11.5613,-3.78912 -24.4771,5.40355 -27.0791,19.27329 -0.4864,2.59298 -1.2491,4.71882 -1.6949,4.72409 -4.3764,0.0518 -19.2378,3.24688 -27.0438,5.81425 -21.1398,6.95291 -39.6441,25.10696 -47.3484,46.45223 l -2.8863,7.99655 -10.6185,0.99907 c -30.317,2.85243 -44.11586,8.32459 -59.40642,23.55856 -7.14303,7.11658 -11.17215,12.49272 -15.11705,20.171 l -5.37841,10.4684 -15.47975,-0.20512 c -8.51386,-0.11282 -23.75931,-0.60815 -33.87876,-1.10078 z"
       id="path19" />
    <path
       style="fill:#ffffff;stroke-width:1.2689"
       d="m 366.07684,558.26363 c -18.09099,-1.06059 -25.8611,-3.41979 -38.03279,-11.54773 -13.95694,-9.32009 -25.77317,-25.6969 -29.75812,-41.24355 -2.51,-9.79236 -2.56744,-29.28496 -0.11351,-38.51821 3.44947,-12.97912 10.3391,-24.83175 20.13236,-34.63482 14.82197,-14.83684 32.8183,-23.63495 48.48121,-23.70169 4.22845,-0.018 8.61007,-0.74652 9.73693,-1.61888 1.12687,-0.87237 3.80712,-7.74184 5.95611,-15.26549 9.6085,-33.63946 27.67993,-56.38928 56.13775,-70.67085 17.29121,-8.6776 27.26565,-10.65474 49.71985,-9.85547 13.4676,0.47938 19.7042,1.26907 24.9608,3.16052 16.3022,5.86594 29.3702,14.45498 41.271,27.12565 8.4935,9.04293 13.3767,16.34526 19.8019,29.61178 5.0085,10.3415 5.5205,10.94689 8.593,10.16121 14.0346,-3.58881 21.786,-4.56827 30.2845,-3.82669 31.0994,2.71377 53.6704,20.91366 64.9124,52.34155 l 4.0282,11.2611 9.4323,2.92795 c 16.2249,5.03643 29.9153,15.26602 39.277,29.34812 20.413,30.70553 13.645,67.50899 -15.0436,81.80512 -8.3806,4.17626 -10.2555,4.03173 -13.3849,-1.03178 -4.2569,-6.88787 -6.7059,-7.38287 -40.3012,-8.14607 l -30.6498,-0.6963 -0.7554,-3.77697 c -0.4155,-2.07734 -0.7554,-12.27066 -0.7554,-22.65182 v -18.87485 l 18.0818,-0.0813 c 9.945,-0.0447 24.8109,-0.53481 33.0354,-1.08914 12.9403,-0.87218 15.3611,-1.39066 17.9798,-3.85078 7.0206,-6.59549 7.0349,-16.34003 0.034,-22.91738 -2.8899,-2.71491 -4.8421,-3.14107 -18.1031,-3.95169 -8.1751,-0.49973 -22.9152,-0.9519 -32.7556,-1.00484 l -17.8918,-0.0962 -0.7117,-16.97504 c -0.9306,-22.19634 -3.0701,-26.37199 -15.2326,-29.73023 -11.8137,-3.26191 -24.7407,5.74944 -26.9425,18.78131 -0.9151,5.41684 0.2125,4.85732 -14.2764,7.08397 -9.4122,1.44644 -23.856,7.15163 -32.2741,12.748 -13.0725,8.6906 -23.8046,22.39731 -29.5643,37.75894 l -2.9117,7.76551 -9.9744,0.97855 c -31.1364,3.05466 -44.87807,8.47748 -60.13232,23.72972 -6.87401,6.8731 -11.07341,12.48783 -14.97378,20.02036 l -5.42058,10.4684 -18.01754,-0.19507 c -9.90966,-0.10728 -25.1551,-0.6135 -33.87877,-1.12493 z"
       id="path20" />
    <path
       style="fill:#ffffff;stroke-width:1.2689"
       d="m 365.4424,558.25946 c -22.88705,-1.41216 -37.62346,-8.25036 -51.33353,-23.82055 -12.62558,-14.33855 -17.82137,-28.39629 -17.82137,-48.21752 0,-21.97909 6.89298,-38.76887 22.209,-54.09629 14.06918,-14.07966 32.6933,-23.41228 46.9459,-23.5248 12.35101,-0.0975 12.16011,0.11245 17.80636,-19.5832 8.73495,-30.46984 27.23834,-53.51982 54.10012,-67.39339 15.48576,-7.99808 27.09805,-10.74392 45.43645,-10.74392 19.9546,0 27.5784,1.5863 42.6364,8.87142 20.6766,10.00342 35.1955,24.92011 48.1142,49.43236 3.9479,7.49095 7.1074,12.05563 8.2722,11.95146 1.0365,-0.0927 6.6686,-1.15852 12.5158,-2.36848 21.8241,-4.51609 44.7663,1.565 61.9531,16.42135 7.8037,6.74555 17.2811,21.72736 21.8832,34.59306 l 4.0282,11.2611 9.4934,2.9469 c 10.7721,3.34383 25.6049,12.49744 32.2676,19.91301 6.0831,6.77051 13.0947,18.70465 15.9579,27.16121 1.6867,4.98191 2.3593,10.60991 2.3506,19.66791 -0.011,11.5527 -0.3641,13.42754 -3.9422,20.9368 -4.964,10.41758 -10.4903,16.53433 -20.0453,22.18699 -9.5843,5.66997 -12.4287,5.69346 -15.8665,0.13095 -1.5119,-2.44639 -4.4539,-4.96082 -6.7652,-5.78201 -2.3524,-0.83581 -16.8411,-1.77462 -34.1063,-2.20997 l -30.0166,-0.75685 -0.7542,-3.77093 c -0.4148,-2.07401 -0.7542,-12.17345 -0.7542,-22.44322 v -18.6723 l 29.7192,-0.83703 c 32.2394,-0.90801 37.6118,-1.87824 41.8235,-7.55309 5.1959,-7.00101 2.2888,-18.15572 -5.7624,-22.11077 -2.0431,-1.00365 -14.0665,-1.85083 -34.2889,-2.41604 l -31.1426,-0.87043 -0.6533,-15.98296 c -0.7951,-19.4521 -2.4674,-24.27289 -9.7001,-27.96274 -7.0513,-3.59729 -16.2451,-3.48239 -21.8172,0.27267 -5.5699,3.75354 -9.6278,9.88318 -10.6849,16.14002 -0.7751,4.58819 -1.2364,5.06662 -5.4993,5.70398 -35.961,5.37665 -58.61,21.7937 -70.0425,50.77016 -1.6521,4.18736 -3.318,8.00194 -3.702,8.47683 -0.3839,0.4749 -7.5501,1.49545 -15.9248,2.26788 -33.7109,3.10929 -56.19416,17.45586 -69.84893,44.57061 l -4.41348,8.76399 -18.70028,-0.19234 c -10.28515,-0.10578 -25.55232,-0.61511 -33.92704,-1.13183 z"
       id="path21" />
    <path
       style="fill:#ffffff;stroke-width:1.2689"
       d="m 364.80795,558.25497 c -9.87144,-0.64241 -16.90999,-1.82612 -21.75629,-3.65889 -21.45846,-8.11511 -39.23501,-27.54635 -44.82123,-48.9933 -2.50587,-9.62069 -2.50768,-29.60273 -0.004,-39.21673 7.72776,-29.66884 40.56915,-57.73918 67.6458,-57.81851 11.8057,-0.0346 11.45971,0.35642 17.38831,-19.65058 9.15787,-30.9047 27.14973,-53.38022 53.71444,-67.10036 16.27491,-8.40566 26.75065,-10.93681 45.26425,-10.93681 20.52,0 28.0376,1.54443 43.1821,8.87142 20.6942,10.01195 36.6859,26.58978 48.5731,50.35357 2.8537,5.70485 5.6781,10.67499 6.2764,11.04476 0.5983,0.36977 4.1824,-0.16122 7.9647,-1.17998 18.2554,-4.9171 35.8903,-3.15068 53.1916,5.32803 16.3099,7.99285 30.5807,25.30441 36.9314,44.8007 1.4881,4.56811 3.3515,8.92998 4.1411,9.69304 0.7896,0.76306 5.8543,2.95988 11.2551,4.88184 22.3912,7.96833 38.5313,24.20454 46.1155,46.39001 1.7008,4.97549 2.3927,10.62159 2.41,19.66791 0.022,11.62602 -0.3075,13.3799 -3.9354,20.9368 -2.1778,4.53631 -5.8893,10.38067 -8.2478,12.98748 -4.8393,5.34867 -18.1064,13.65936 -21.8058,13.65936 -1.342,0 -4.5558,-2.38424 -7.1418,-5.29832 l -4.7019,-5.29831 -13.8696,-0.96591 c -7.6282,-0.53125 -22.2252,-1.00203 -32.4378,-1.04617 -18.1518,-0.0785 -18.5854,-0.14428 -19.3333,-2.93528 -0.4208,-1.57026 -0.7729,-11.84833 -0.7825,-22.84015 l -0.017,-19.98513 14.9096,-0.0623 c 26.8196,-0.11204 49.4646,-1.96112 53.0874,-4.33489 7.5481,-4.94575 8.1533,-16.94674 1.1847,-23.49345 -2.8823,-2.70772 -4.7791,-3.07238 -20.6339,-3.96684 -9.6029,-0.54175 -24.3664,-1.0185 -32.8078,-1.05944 l -15.348,-0.0744 -0.791,-16.53811 c -0.9302,-19.44715 -2.6234,-24.23646 -9.8762,-27.93659 -13.6842,-6.98114 -29.64,1.21212 -32.2315,16.55074 -0.7737,4.5799 -1.2441,5.07045 -5.4993,5.7353 -27.2512,4.25785 -45.3129,13.65135 -58.274,30.30715 -5.0207,6.45186 -13.0927,21.52094 -14.5851,27.22796 -0.5478,2.09468 -2.184,2.60229 -10.6322,3.29841 -28.9225,2.38316 -45.48367,8.94585 -60.50467,23.97618 -6.75963,6.76383 -10.43115,11.80262 -14.19384,19.47966 l -5.07558,10.35576 -19.66791,-0.10301 c -10.81735,-0.0566 -26.23445,-0.53033 -34.26022,-1.05262 z"
       id="path22" />
    <path
       style="fill:#ffffff;stroke-width:1.2689"
       d="m 364.80795,558.25497 c -9.87144,-0.64241 -16.90999,-1.82612 -21.75629,-3.65889 -21.45846,-8.11511 -39.23501,-27.54635 -44.82123,-48.9933 -2.50587,-9.62069 -2.50768,-29.60273 -0.004,-39.21673 7.84389,-30.11471 40.6344,-57.80118 68.4569,-57.80118 9.40815,0 11.15476,-1.94736 15.93328,-17.76456 6.69069,-22.14661 14.92757,-36.68682 28.43392,-50.19316 8.99913,-8.99913 16.49579,-14.32393 28.56171,-20.28707 14.31638,-7.07534 25.06269,-9.46029 42.62699,-9.46029 20.52,0 28.0376,1.54443 43.1821,8.87142 19.9558,9.65469 36.6933,26.64381 47.5135,48.22761 7.2405,14.44323 6.6756,13.97172 14.3072,11.94189 39.9545,-10.62687 77.9866,10.40867 91.1865,50.43525 1.4597,4.4264 3.2959,8.67231 4.0804,9.43537 0.7844,0.76306 5.8993,2.97967 11.3664,4.92583 18.9225,6.73596 33.4955,19.48376 41.9545,36.69982 10.8667,22.11652 8.5722,47.42744 -5.7328,63.23839 -4.8393,5.34867 -18.1064,13.65936 -21.8058,13.65936 -1.342,0 -4.5669,-2.39669 -7.1664,-5.32599 l -4.7264,-5.32598 -15.1139,-0.92226 c -8.3126,-0.50724 -22.8986,-0.96557 -32.4133,-1.01851 -16.8296,-0.0936 -17.3201,-0.17375 -18.0644,-2.95125 -0.4208,-1.57026 -0.7729,-11.84833 -0.7825,-22.84015 l -0.017,-19.98513 14.9096,-0.0623 c 26.2405,-0.10961 49.4767,-1.96905 52.9367,-4.23619 9.9403,-6.5131 7.3058,-23.05736 -4.148,-26.04884 -2.582,-0.67435 -17.9704,-1.62695 -34.1964,-2.11687 l -29.5019,-0.89078 -0.039,-9.0177 c -0.052,-11.87569 -2.0261,-26.69458 -3.9721,-29.81061 -2.4843,-3.97804 -10.4118,-7.75726 -16.272,-7.75726 -10.7687,0 -20.3487,8.22192 -22.0617,18.93411 -0.7478,4.67659 -1.1714,5.1181 -5.5618,5.79637 -9.2004,1.42133 -25.1249,5.86768 -31.3993,8.76715 -9.5626,4.41899 -20.9443,13.60084 -27.1441,21.89778 -5.4594,7.306 -14.095,23.63677 -14.095,26.655 0,2.35732 -0.8613,2.58397 -15.8612,4.17392 -18.3727,1.94747 -23.4138,3.22229 -35.52918,8.9849 -15.66322,7.4501 -32.731,25.68273 -37.46246,40.0192 l -1.43572,4.35026 -19.88672,-0.18951 c -10.9377,-0.10424 -26.45327,-0.61686 -34.47904,-1.13915 z"
       id="path23" />
    <path
       style="fill:#ffffff;stroke-width:1.2689"
       d="m 363.53905,558.24485 c -8.35327,-0.60908 -15.99586,-1.97618 -20.48739,-3.66475 -21.41308,-8.05019 -39.23294,-27.52242 -44.82123,-48.97732 -2.50587,-9.62069 -2.50768,-29.60273 -0.004,-39.21673 5.0357,-19.33335 21.49221,-39.7881 39.70205,-49.348 11.48425,-6.02905 14.77102,-7.03308 27.43116,-8.37952 6.89231,-0.73302 10.54555,-1.72277 11.57985,-3.13726 0.83105,-1.13652 3.89676,-9.40854 6.81269,-18.38226 10.81043,-33.26883 30.66784,-55.95331 60.38638,-68.98348 13.01393,-5.70599 21.40247,-7.27574 38.88057,-7.27574 20.4706,0 26.5995,1.28618 42.4022,8.89834 20.6572,9.95055 36.1174,25.96828 48.7786,50.53791 5.2865,10.25856 5.5745,10.5645 9.3765,9.95816 23.8339,-3.80096 27.4737,-3.9744 37.9642,-1.80899 23.3677,4.82347 41.1412,18.41811 51.224,39.18018 2.8332,5.83406 6.2202,13.36825 7.5265,16.74263 2.3498,6.06981 2.4948,6.18007 13.5943,10.33762 19.7742,7.4068 33.4555,19.37992 41.926,36.69134 14.3799,29.38852 5.9985,60.65324 -19.7944,73.83825 -3.2918,1.68272 -6.9257,3.0595 -8.0754,3.0595 -1.1497,0 -4.1959,-2.37266 -6.7694,-5.27257 l -4.679,-5.27257 -17.6991,-0.99748 c -9.7345,-0.54862 -24.3473,-1.03098 -32.4729,-1.07192 -12.2554,-0.0617 -14.9051,-0.41656 -15.544,-2.08156 -0.4236,-1.10391 -0.7702,-11.29641 -0.7702,-22.64996 v -20.64285 l 28.233,-0.90865 c 32.4845,-1.04549 39.1732,-2.09605 42.814,-6.72448 3.3061,-4.20311 3.3358,-12.37816 0.064,-17.74346 -3.475,-5.69924 -7.4798,-6.41884 -41.425,-7.44345 l -29.3174,-0.88493 -0.8548,-15.98826 c -0.5968,-11.16433 -1.5139,-17.31061 -3.0395,-20.37104 -8.4065,-16.86422 -33.657,-12.04743 -38.2999,7.3061 -1.4594,6.08372 -1.8343,6.52204 -6.1937,7.2422 -11.3874,1.88115 -25.0185,5.8561 -32.8899,9.591 -12.329,5.85002 -27.3615,21.1639 -34.1259,34.76471 -2.7784,5.58629 -5.3731,11.38644 -5.7661,12.8892 -0.6154,2.35311 -1.924,2.84416 -9.429,3.53832 -31.7634,2.93787 -46.69866,8.89487 -62.42999,24.90051 -6.53078,6.64466 -15.56822,20.34505 -17.30588,26.23502 -0.83281,2.82287 -1.08069,2.85295 -22.01081,2.67137 -11.64269,-0.101 -27.16406,-0.62081 -34.49194,-1.15513 z"
       id="path24" />
    <path
       style="fill:#ffffff;stroke-width:1.2689"
       d="m 363.53905,558.29457 c -15.05972,-1.1227 -17.56327,-1.7694 -28.55019,-7.37508 -16.86884,-8.60672 -32.0817,-27.3615 -36.75843,-45.31671 -2.50587,-9.62069 -2.50768,-29.60273 -0.004,-39.21673 5.15645,-19.79694 21.53532,-39.88532 40.59117,-49.78431 9.49919,-4.93457 16.9854,-7.01612 31.37942,-8.72507 7.18357,-0.85288 6.90332,-0.41844 13.71537,-21.26152 8.66481,-26.51202 22.15009,-45.17264 42.28109,-58.50761 19.82465,-13.13204 33.46655,-17.2359 57.20535,-17.209 20.3359,0.023 29.0546,1.93676 44.0066,9.6592 18.8353,9.72802 35.3098,27.01027 45.8805,48.12991 6.3269,12.64071 6.4254,12.69465 18.6721,10.22698 13.4005,-2.70014 21.5861,-2.58905 33.4861,0.45445 25.7734,6.59173 42.9236,23.165 53.4502,51.65214 l 3.3674,9.11292 11.9273,4.62149 c 19.8866,7.70539 33.1514,19.41577 41.6747,36.79082 14.3342,29.22084 5.8991,60.54782 -19.8467,73.70878 -3.2918,1.68272 -6.9257,3.0595 -8.0754,3.0595 -1.1497,0 -4.1959,-2.37266 -6.7694,-5.27257 l -4.679,-5.27257 -17.6991,-0.99748 c -9.7345,-0.54862 -24.3473,-1.03098 -32.4729,-1.07192 -12.2554,-0.0617 -14.9051,-0.41656 -15.544,-2.08156 -0.4236,-1.10391 -0.7702,-11.38198 -0.7702,-22.84015 v -20.83302 l 9.834,-0.0179 c 16.9391,-0.0309 43.7965,-1.40461 51.0731,-2.61236 5.2556,-0.87231 7.6824,-2.02224 9.8276,-4.65685 5.0362,-6.18487 2.9256,-18.42058 -3.8135,-22.10863 -1.8323,-1.00277 -14.2235,-1.99738 -34.8815,-2.79983 l -32.0397,-1.24459 -0.01,-7.07174 c -0.018,-12.96332 -2.3637,-28.44863 -4.818,-31.80183 -5.4067,-7.38687 -16.6936,-9.64592 -25.5696,-5.11771 -5.9524,3.0367 -9.4345,7.66894 -11.4765,15.26713 -1.706,6.34797 -2.9351,7.55398 -7.7275,7.58232 -5.9483,0.0352 -22.806,4.97543 -31.3825,9.19686 -15.231,7.49683 -29.5275,23.38983 -37.0238,41.15804 -1.8665,4.42406 -3.6445,8.2946 -3.951,8.60121 -0.3066,0.30659 -6.6843,1.18067 -14.1726,1.94237 -16.8138,1.7103 -31.4177,5.83326 -40.88431,11.54239 -10.6629,6.4306 -24.48244,21.54373 -29.79811,32.58733 l -4.42439,9.19197 -21.58799,-0.19521 c -11.8734,-0.10736 -27.01253,-0.59959 -33.64252,-1.09385 z"
       id="path25" />
    <path
       style="fill:#ffffff;stroke-width:1.2689"
       d="m 361.72243,558.2243 c -12.75253,-0.91202 -14.74794,-1.42412 -24.7435,-6.35015 -18.7288,-9.22996 -33.78275,-27.20656 -38.7485,-46.27137 -2.50587,-9.62069 -2.50768,-29.60273 -0.004,-39.21673 5.04769,-19.37937 21.4873,-39.78548 39.79532,-49.397 9.85679,-5.17472 19.77511,-8.35912 26.15131,-8.3962 2.09368,-0.0122 5.89033,-0.60088 8.437,-1.30824 4.61262,-1.28119 4.6534,-1.35416 10.67208,-19.09316 9.75037,-28.73753 22.46454,-46.53975 42.91134,-60.08391 19.82465,-13.13204 33.46655,-17.2359 57.20535,-17.209 20.3359,0.023 29.0546,1.93676 44.0066,9.6592 18.6483,9.63147 34.3408,26.01395 46.0327,48.05687 6.9472,13.0976 6.3357,12.7551 18.424,10.31934 13.4392,-2.70793 21.6586,-2.61437 33.3657,0.37982 26.4842,6.77352 43.697,23.58686 54.276,53.01643 2.6705,7.42897 3.1733,8.00451 8.7083,9.96942 15.2105,5.39962 24.8155,11.11622 33.7604,20.0932 30.1251,30.23296 27.1953,75.91611 -5.9555,92.86241 -3.2918,1.68272 -6.9257,3.0595 -8.0754,3.0595 -1.1497,0 -4.2054,-2.38337 -6.7905,-5.29637 l -4.7001,-5.29637 -18.9469,-0.96055 c -10.4208,-0.5283 -25.0241,-0.99996 -32.4518,-1.04811 -11.09,-0.0719 -13.6426,-0.44648 -14.2751,-2.0947 -0.4236,-1.10391 -0.7702,-11.26945 -0.7702,-22.59009 v -20.58295 l 31.4241,-1.33212 c 33.9624,-1.43971 37.737,-2.24275 40.656,-8.64928 3.1768,-6.97224 0.6744,-16.75829 -5.0716,-19.83346 -2.593,-1.38773 -35.2022,-3.44357 -57.1745,-3.60454 l -9.834,-0.072 -0.01,-7.29616 c -0.017,-13.16553 -2.3469,-28.65007 -4.818,-32.02626 -3.0773,-4.20432 -9.9769,-7.62236 -15.3913,-7.62481 -6.1033,-0.003 -15.1011,4.68102 -18.0018,9.37075 -1.3439,2.17289 -3.0706,6.38402 -3.837,9.35807 -1.0088,3.91489 -2.1388,5.54757 -4.0941,5.91536 -25.6818,4.83065 -39.0078,10.36496 -50.7049,21.05787 -8.7502,7.99906 -16.5198,19.03273 -21.1793,30.07683 -1.8508,4.38698 -3.6044,8.21561 -3.8969,8.50808 -0.2924,0.29248 -6.5237,1.17991 -13.8471,1.97207 -27.7966,3.00672 -40.22131,8.26116 -55.27029,23.37396 -7.43343,7.46496 -11.59858,12.96432 -15.22676,20.10433 l -4.99434,9.82851 -21.57126,-0.1782 c -11.86418,-0.098 -27.81326,-0.62462 -35.44239,-1.17024 z"
       id="path26" />
  </g>
</svg>
